HIERARCHY
ROOT hip
{
	OFFSET 0.000000 0.000000 0.000000 
	CHANNELS 6 Xposition Yposition Zposition Xrotation Zrotation Yrotation
	JOINT abdomen
	{
		OFFSET 0.000000 3.402643 0.000000 
		CHANNELS 3 Xrotation Zrotation Yrotation
		JOINT chest
		{
			OFFSET 0.000000 8.438565 -0.680529 
			CHANNELS 3 Xrotation Zrotation Yrotation
			JOINT neck
			{
				OFFSET 0.000000 10.207942 -0.272212 
				CHANNELS 3 Xrotation Zrotation Yrotation
				JOINT head
				{
					OFFSET 0.000000 3.130431 0.000000 
					CHANNELS 3 Xrotation Zrotation Yrotation
					End Site
					{
						OFFSET 0.000000 3.130435 0.000000 
					}
				}
			}
			JOINT lCollar
			{
				OFFSET 3.470700 6.669187 -0.816635 
				CHANNELS 3 Yrotation Zrotation Xrotation
				JOINT lShldr
				{
					OFFSET 3.198488 0.000000 0.000000 
					CHANNELS 3 Zrotation Yrotation Xrotation
					JOINT lForeArm
					{
						OFFSET 10.139888 0.000000 0.000000 
						CHANNELS 3 Yrotation Zrotation Xrotation
						JOINT lHand
						{
							OFFSET 8.370511 0.000000 0.000000 
							CHANNELS 3 Zrotation Yrotation Xrotation
							End Site
							{
								OFFSET 4.083176 0.000000 0.000000 
							}
						}
					}
				}
			}
			JOINT rCollar
			{
				OFFSET -3.470700 6.669187 -0.816635 
				CHANNELS 3 Yrotation Zrotation Xrotation
				JOINT rShldr
				{
					OFFSET -3.198488 0.000000 0.000000 
					CHANNELS 3 Zrotation Yrotation Xrotation
					JOINT rForeArm
					{
						OFFSET -10.139888 0.000000 0.000000 
						CHANNELS 3 Yrotation Zrotation Xrotation
						JOINT rHand
						{
							OFFSET -8.370511 0.000000 0.000000 
							CHANNELS 3 Zrotation Yrotation Xrotation
							End Site
							{
								OFFSET -4.083176 0.000000 0.000000 
							}
						}
					}
				}
			}
		}
	}
	JOINT lThigh
	{
		OFFSET 5.308129 -1.633274 1.361059 
		CHANNELS 3 Xrotation Zrotation Yrotation
		JOINT lShin
		{
			OFFSET -2.041588 -20.007561 0.000000 
			CHANNELS 3 Xrotation Zrotation Yrotation
			JOINT lFoot
			{
				OFFSET 0.000000 -19.190928 -1.224953 
				CHANNELS 3 Xrotation Yrotation Zrotation
				End Site
				{
					OFFSET 0.000000 -2.449906 4.627600 
				}
			}
		}
	}
	JOINT rThigh
	{
		OFFSET -5.308129 -1.633274 1.361059 
		CHANNELS 3 Xrotation Zrotation Yrotation
		JOINT rShin
		{
			OFFSET 2.041588 -20.007561 0.000000 
			CHANNELS 3 Xrotation Zrotation Yrotation
			JOINT rFoot
			{
				OFFSET 0.000000 -19.190928 -1.224953 
				CHANNELS 3 Xrotation Yrotation Zrotation
				End Site
				{
					OFFSET 0.000000 -2.449906 4.627600 
				}
			}
		}
	}
}
MOTION
Frames: 11
Frame Time: 0.033333
-73.901115 49.695652 15.888407 3.601071 -4.555381 47.442657 0.000000 0.000000 0.000000 20.139799 -1.148457 4.707845 5.411159 0.068352 0.839855 -15.975779 -2.741168 -2.669501 -2.606555 -16.990196 18.026951 -45.474316 3.486068 12.410808 -57.741161 -3.678711 3.598475 23.689764 14.398894 -1.338043 3.101123 24.993467 19.460640 31.570528 -0.577923 8.904022 50.205101 8.625994 -8.368539 -11.919415 -9.812700 -2.925931 -1.133023 12.048412 7.721255 9.043598 -5.443149 11.661004 -10.276952 0.835175 -9.140571 -10.574379 -14.927420 -11.145511 32.709293 4.968951 -6.974434 -6.942022 -0.825600 12.996333 
-74.332954 49.846500 15.143268 4.745069 -4.635153 44.136539 0.000000 0.000000 0.000000 19.051182 -1.694354 4.337791 4.951032 -0.585607 1.923927 -15.754109 -1.590796 -2.032094 -2.713386 -19.075897 16.926600 -44.251858 4.806532 13.563746 -59.770977 -3.236773 1.867627 24.862925 13.549023 -1.393777 3.848597 24.990698 18.247879 32.651985 -0.782213 10.149275 50.267273 8.629488 -5.495528 -10.128605 -8.758674 -3.105983 -1.074241 10.658079 6.803916 6.313559 -5.083848 15.015367 -8.507791 0.658014 -8.751364 -9.781972 -14.084281 -12.203506 33.415730 6.102872 -7.611331 -7.654360 -0.815264 11.721556 
-74.755806 49.846413 14.462713 5.223930 -4.536903 40.161053 0.000000 0.000000 0.000000 18.669857 -1.869112 4.543372 4.253571 -0.906651 3.349962 -15.568712 -1.181332 -1.308920 -2.557137 -20.109467 16.501215 -43.422272 3.675600 15.828170 -61.044510 -3.176340 0.407470 26.102436 13.118142 -1.367581 4.648628 24.998209 17.773600 32.881168 0.113125 10.444895 50.445709 8.459702 -4.117307 -9.277980 -7.776386 -3.219772 -2.031247 10.390160 6.817384 7.640007 -5.334745 17.239735 -9.012521 0.693928 -8.682085 -9.168723 -13.004930 -12.752939 33.815094 7.137489 -7.487657 -8.757105 -0.817831 10.133755 
-75.245605 49.756737 13.806900 5.371971 -4.081901 36.424908 0.000000 0.000000 0.000000 18.890800 -1.859019 4.680019 4.054871 -1.138579 4.795720 -15.880183 -0.996058 -0.488377 -2.827019 -21.455847 16.540836 -42.017300 1.176287 18.620346 -61.825218 -3.091324 0.212813 26.724127 13.336701 -1.259176 4.809969 24.993500 17.961393 32.008659 2.323167 10.139302 50.216274 8.465946 -6.034599 -8.401196 -7.614963 -3.257669 -3.552999 10.743136 7.729937 10.961400 -6.346397 19.118271 -10.238826 0.793397 -8.684521 -8.532504 -12.083457 -13.122653 34.622559 7.839164 -7.317304 -9.983505 -0.820161 8.838590 
-75.810646 49.501465 13.180119 5.264287 -3.391631 33.650219 0.000000 0.000000 0.000000 19.655857 -1.548128 4.415614 3.815349 -1.195144 5.743378 -16.021626 -1.005841 0.341744 -2.988471 -22.076536 17.214182 -40.708019 -4.187535 20.807310 -61.118206 -3.453541 1.419754 23.648697 12.346748 -1.747389 4.253534 24.989994 18.690426 30.361834 6.123074 8.800299 49.140167 8.594437 -9.118680 -7.558022 -7.388340 -3.297098 -5.448674 11.765254 9.401659 15.608726 -7.793008 18.576441 -12.031549 0.950519 -8.657311 -7.653463 -11.330561 -13.628484 35.884922 8.348113 -7.537589 -11.977839 -0.896584 7.987592 
-76.341461 48.920082 12.625329 5.032361 -2.110214 30.980112 0.000000 0.000000 0.000000 20.433226 -1.344366 4.004865 3.787108 -1.280489 6.612944 -15.858950 -1.151982 1.435649 -3.004550 -23.004175 17.950094 -38.651352 -11.259369 21.280563 -59.691120 -4.189727 -1.952201 17.112869 12.721904 -2.214692 3.105144 24.995920 19.576744 24.994440 10.986203 8.491035 47.702579 9.308012 -12.436899 -7.568162 -7.810822 -3.275476 -7.207413 12.861774 10.647737 21.755199 -8.418495 14.642102 -15.044610 1.222496 -9.191901 -5.497705 -10.993390 -14.337508 34.827717 8.366116 -9.904558 -17.201990 -1.308045 8.403850 
-76.731094 48.033009 12.063663 4.447495 -0.633010 27.384563 0.000000 0.000000 0.000000 20.878908 -1.110537 4.024005 4.151106 -1.325064 7.941381 -16.649780 -1.307309 2.539515 -3.372906 -24.098915 18.228645 -36.572617 -19.658390 19.739388 -59.169319 -5.124796 -10.466075 17.628197 15.448532 -1.783702 2.790125 24.999262 20.043558 17.498766 17.357359 7.593608 45.803669 10.120468 -16.382820 -7.250578 -9.583202 -3.199639 -8.544273 14.138645 11.629476 28.835686 -8.166245 9.257486 -19.171728 1.716044 -9.996078 -4.491647 -11.528438 -14.909050 34.148403 7.694592 -11.797954 -23.877024 -1.978565 9.220017 
-77.023354 47.149364 11.479042 3.177577 0.639716 22.687107 0.000000 0.000000 0.000000 20.992771 -0.827766 4.277743 5.348946 -0.760527 9.668795 -17.961332 -2.131244 4.778617 -4.060625 -20.530792 18.382795 -37.884724 -32.115780 13.738830 -57.341160 -4.999965 -17.016552 17.715462 14.998112 -1.823955 3.804575 24.988665 19.910542 10.589009 26.220711 1.692426 44.030830 8.567502 -16.455824 -11.028244 -9.379269 -3.038591 -8.952948 15.491475 13.291829 35.136303 -7.968014 7.413441 -22.504026 2.230898 -11.006333 -7.342717 -13.130494 -14.829515 40.550270 6.433325 -7.952036 -27.471058 -2.146560 8.676303 
-77.159698 46.509758 11.138999 1.190764 2.565252 18.515348 0.000000 0.000000 0.000000 21.118814 -0.759869 3.994436 6.229902 -0.498223 11.152766 -16.311007 -1.581794 6.428174 -5.123490 -15.938729 18.666281 -35.011566 -48.012215 0.619746 -54.181194 -4.149665 -21.428682 18.542839 10.204829 -2.522733 4.819623 24.323820 19.694920 2.088544 38.476547 -10.666549 41.796734 4.913491 -8.098924 -15.987318 -4.900665 -3.310365 -7.254938 15.375903 15.037669 38.967865 -8.230375 8.370077 -24.550112 2.579566 -11.934099 -9.832355 -15.326871 -14.585059 47.941151 4.578574 -3.902447 -28.245840 -2.069814 8.150424 
-77.279755 46.268055 11.246881 -0.690072 4.545651 17.136150 0.000000 0.000000 0.000000 20.429230 -0.507419 2.255944 7.095566 0.182212 10.878974 -15.094487 -1.574920 8.352605 -7.639542 -10.670948 18.315744 -20.808563 -62.465816 -24.385571 -50.416439 -4.403258 -28.984365 23.963192 6.949161 -2.757602 5.652419 19.258665 18.679672 -10.192341 50.285240 -30.309044 38.962521 1.893597 4.608189 -19.336834 0.231174 -4.064524 -5.048811 14.390329 16.096960 40.083843 -8.501329 9.758105 -24.700361 2.771923 -12.494356 -8.778767 -16.803675 -14.966928 50.165295 3.720687 -2.837197 -29.074417 -2.134559 8.043988 
-77.538864 46.694004 11.717973 -1.803517 5.959184 15.801178 0.000000 0.000000 0.000000 18.985680 -0.410069 1.181610 7.262386 -0.067111 10.966800 -13.965522 -0.848321 9.200226 -9.054070 -5.872374 17.374901 10.833727 -68.618828 -66.509125 -45.358223 -4.349582 -26.757744 19.870308 4.495570 -3.332129 7.317952 12.469434 17.270775 -32.306122 56.608543 -58.807903 34.150341 0.363317 14.028269 -23.796757 2.996216 -4.744866 -2.803175 14.146535 16.977457 39.572132 -9.027693 8.661788 -21.205940 2.352864 -12.558558 -5.976490 -16.568361 -14.583072 47.215740 3.232292 -3.533063 -28.892551 -2.081589 7.964058 
